<?xml version="1.0" standalone="no"?>
<!DOCTYPE svg PUBLIC "-//W3C//DTD SVG 1.1//EN" "http://www.w3.org/Graphics/SVG/1.1/DTD/svg11.dtd" >
<svg xmlns="http://www.w3.org/2000/svg">
<metadata></metadata>
<defs>
<font id="klavika_rgregular" horiz-adv-x="1273" >
<font-face units-per-em="2048" ascent="1536" descent="-512" />
<missing-glyph horiz-adv-x="440" />
<glyph unicode="&#xfb01;" horiz-adv-x="1222" d="M61 854v143h177v185q0 131 71.5 197.5t210.5 66.5q92 0 187 -27l-15 -133q-90 17 -149 17q-78 0 -105.5 -30.5t-27.5 -107.5v-168h649v-997h-172v854h-477v-854h-172v854h-177zM887 1157v248h172v-248h-172z" />
<glyph unicode="&#xfb02;" horiz-adv-x="1222" d="M61 854v143h177v185q0 131 71.5 197.5t210.5 66.5q91 0 193 -27l-15 -133q-87 17 -155 17q-78 0 -105.5 -30.5t-27.5 -107.5v-168h274l-14 -143h-260v-854h-172v854h-177zM887 0v1405l172 25v-1430h-172z" />
<glyph horiz-adv-x="2048" />
<glyph horiz-adv-x="2048" />
<glyph unicode="&#xd;" horiz-adv-x="2048" />
<glyph unicode=" "  horiz-adv-x="440" />
<glyph unicode="&#x09;" horiz-adv-x="440" />
<glyph unicode="&#xa0;" horiz-adv-x="440" />
<glyph unicode="!" horiz-adv-x="544" d="M184 0v236h176v-236h-176zM186 737v668h172v-668l-32 -348h-107z" />
<glyph unicode="&#x22;" horiz-adv-x="768" d="M143 903v502h142v-502h-142zM483 903v502h142v-502h-142z" />
<glyph unicode="#" horiz-adv-x="1447" d="M123 354l8 129h266l21 381h-271l7 129h272l18 330h140l-19 -330h367l18 330h140l-19 -330h264l-8 -129h-264l-21 -381h269l-8 -129h-267l-16 -354h-139l16 354h-371l-22 -354h-139l22 354h-264zM537 483h366l21 381h-367z" />
<glyph unicode="$" horiz-adv-x="1060" d="M123 49l22 139q186 -57 367 -57q82 0 129.5 9.5t73.5 36.5t33.5 62.5t7.5 100.5q0 45 -1.5 68t-11 50t-23.5 40t-46.5 31.5t-72 33t-107.5 35.5q-80 26 -132.5 46.5t-94 46.5t-63.5 51t-36.5 63.5t-18.5 80t-4 105.5q0 177 76.5 258.5t270.5 91.5v213h151v-215 q158 -7 264 -34l-16 -146q-181 33 -332 33q-76 0 -118 -7t-72.5 -29t-41 -61.5t-10.5 -107.5q0 -40 2 -64.5t11 -48.5t23 -38t42.5 -31t63.5 -30t92 -32q89 -29 145 -50.5t101.5 -48.5t68.5 -51.5t38.5 -63.5t19.5 -80.5t4 -106.5q0 -182 -72.5 -262.5t-255.5 -95.5v-215 h-151v213q-172 10 -326 67z" />
<glyph unicode="%" horiz-adv-x="1722" d="M102 918v188q0 135 69 206.5t232 71.5t232.5 -71.5t69.5 -206.5v-188q0 -135 -69.5 -207t-232.5 -72t-232 72t-69 207zM242 911q0 -77 36 -113t125 -36t125.5 36t36.5 113v201q0 77 -36.5 113.5t-125.5 36.5t-125 -36.5t-36 -113.5v-201zM516 33l551 1351l123 -51 l-553 -1353zM1008 258v188q0 135 69 207t232 72t232 -72t69 -207v-188q0 -135 -69 -206.5t-232 -71.5t-232 71.5t-69 206.5zM1147 252q0 -77 36.5 -113.5t125.5 -36.5t125 36.5t36 113.5v201q0 77 -36 113t-125 36t-125.5 -36t-36.5 -113v-201z" />
<glyph unicode="&#x26;" horiz-adv-x="1261" d="M154 307v125q0 101 46 169.5t134 92.5q-152 62 -152 242v141q0 153 94.5 230t315.5 77q195 0 375 -36l-17 -142q-185 29 -356 29q-134 0 -187 -39.5t-53 -138.5v-137q0 -162 185 -162h661v-148h-201v-573q-203 -57 -417 -57q-228 0 -328 80t-100 247zM326 326 q0 -108 55 -152.5t201 -44.5q135 0 254 25v456h-291q-116 0 -167.5 -43.5t-51.5 -142.5v-98z" />
<glyph unicode="'" horiz-adv-x="428" d="M143 903v502h142v-502h-142z" />
<glyph unicode="(" horiz-adv-x="622" d="M143 623q0 515 316 938l123 -82q-144 -223 -205.5 -425t-61.5 -431t61.5 -431t205.5 -425l-123 -82q-316 423 -316 938z" />
<glyph unicode=")" horiz-adv-x="622" d="M41 -233q143 223 204.5 425t61.5 431t-61.5 431t-204.5 425l123 82q315 -422 315 -938t-315 -938z" />
<glyph unicode="*" horiz-adv-x="968" d="M102 1030v96h297l-161 250l77 51l168 -260l168 260l78 -51l-162 -250h299v-96h-295l160 -246l-80 -49l-168 260l-168 -260l-79 49l159 246h-293z" />
<glyph unicode="+" horiz-adv-x="1077" d="M123 426v143h340v346h151v-346h340v-143h-340v-346h-151v346h-340z" />
<glyph unicode="," horiz-adv-x="520" d="M143 -207l86 207h-59v236h176v-236l-123 -246z" />
<glyph unicode="-" horiz-adv-x="757" d="M123 500v141h512v-141h-512z" />
<glyph unicode="." horiz-adv-x="524" d="M174 0v236h176v-236h-176z" />
<glyph unicode="/" horiz-adv-x="913" d="M123 -240l504 1624h164l-506 -1624h-162z" />
<glyph unicode="0" horiz-adv-x="1130" d="M143 334v655q0 354 422 354t422 -354v-655q0 -354 -422 -354t-422 354zM315 352q0 -116 56 -168.5t194 -52.5t194 52.5t56 168.5v619q0 116 -56 168.5t-194 52.5t-194 -52.5t-56 -168.5v-619z" />
<glyph unicode="1" horiz-adv-x="716" d="M20 1116l359 207h153v-1323h-172v1126l-264 -147z" />
<glyph unicode="2" horiz-adv-x="995" d="M102 0v158q170 192 353 407q103 122 151.5 194.5t60 111t11.5 92.5v59q0 68 -17.5 102t-69 50t-155.5 16q-150 0 -303 -45l-24 147q166 51 342 51q94 0 162.5 -13.5t114 -38.5t73 -65t38.5 -88.5t11 -113.5v-45q0 -124 -41.5 -209.5t-192.5 -265.5q-180 -216 -301 -352 h547v-152h-760z" />
<glyph unicode="3" horiz-adv-x="997" d="M102 20l19 144q141 -33 299 -33q145 0 203.5 39t58.5 137v103q0 96 -51.5 137t-155.5 41h-280v151h258q115 0 159.5 41.5t44.5 128.5v119q0 92 -49 128t-172 36q-127 0 -289 -31l-18 146q155 36 311 36q210 0 299.5 -71t89.5 -219v-121q0 -100 -32 -160t-123 -104 q90 -26 135 -82.5t45 -161.5v-133q0 -161 -103 -236t-331 -75q-199 0 -318 40z" />
<glyph unicode="4" horiz-adv-x="1099" d="M45 326v170l571 827h232v-850h190v-147h-190v-326h-172v326h-631zM215 473h461v676z" />
<glyph unicode="5" horiz-adv-x="1015" d="M119 27l18 139q143 -35 324 -35q149 0 199.5 43t50.5 156v90q0 96 -43.5 135.5t-167.5 42.5q-81 2 -197.5 4t-132.5 2v719h696v-152h-524v-419q125 -3 219 -7q174 -7 248 -86t74 -221v-119q0 -85 -20 -145t-67.5 -105t-130 -67t-202.5 -22q-204 0 -344 47z" />
<glyph unicode="6" horiz-adv-x="1048" d="M143 295v586q0 253 123 357.5t414 104.5q126 0 225 -24l-18 -143q-88 18 -180 18q-81 0 -139.5 -6t-103.5 -21t-73 -37.5t-46 -59t-25 -82t-7 -109.5v-168q53 20 130.5 33.5t142.5 13.5q190 0 270 -79t80 -247v-65q0 -97 -15.5 -163t-57.5 -119.5t-121 -79t-199 -25.5 q-212 0 -306 81t-94 234zM313 319q0 -105 54.5 -146.5t175.5 -41.5q129 0 176 42t47 146v113q0 96 -43 136t-154 40q-127 0 -256 -55v-234z" />
<glyph unicode="7" horiz-adv-x="901" d="M51 1171v152h813v-145l-545 -1178h-174l543 1171h-637z" />
<glyph unicode="8" horiz-adv-x="1114" d="M133 305v60q0 106 54 176.5t188 134.5q-118 58 -162.5 124.5t-44.5 168.5v53q0 73 19.5 129t63 100.5t121 68t185.5 23.5q209 0 299 -85t90 -236v-53q0 -101 -46 -168t-167 -125q137 -64 192.5 -134.5t55.5 -176.5v-60q0 -172 -99.5 -248.5t-324.5 -76.5 q-226 0 -325 76.5t-99 248.5zM301 311q0 -104 56.5 -144t199.5 -40q142 0 199 40.5t57 143.5v47q0 45 -10.5 75t-41.5 57.5t-76.5 50.5t-127.5 57q-158 -64 -207 -109t-49 -131v-47zM336 965q0 -78 44.5 -122t176.5 -98q132 54 176.5 98t44.5 122v65q0 84 -49.5 126 t-171.5 42q-123 0 -172 -41.5t-49 -126.5v-65z" />
<glyph unicode="9" horiz-adv-x="1048" d="M113 891v65q0 76 10 133t36 106.5t69.5 81t113 49t164.5 17.5q211 0 305 -83.5t94 -237.5v-580q0 -253 -122.5 -357.5t-413.5 -104.5q-127 0 -226 24l17 143q88 -18 182 -18q98 0 163 9.5t111.5 29.5t71.5 58t36 89.5t11 128.5v168q-53 -20 -130 -33.5t-142 -13.5 q-190 0 -270 79t-80 247zM283 891q0 -96 43 -136t153 -40q127 0 256 55v234q0 106 -54 147t-175 41q-129 0 -176 -42t-47 -146v-113z" />
<glyph unicode=":" horiz-adv-x="524" d="M174 0v236h176v-236h-176zM174 627v235h176v-235h-176z" />
<glyph unicode=";" horiz-adv-x="520" d="M143 -207l86 207h-59v236h176v-236l-123 -246zM170 627v235h176v-235h-176z" />
<glyph unicode="&#x3c;" horiz-adv-x="1142" d="M102 446v107l846 467l62 -113l-748 -407l748 -408l-62 -112z" />
<glyph unicode="=" horiz-adv-x="1042" d="M143 248v127h756v-127h-756zM143 612v127h756v-127h-756z" />
<glyph unicode="&#x3e;" horiz-adv-x="1142" d="M133 92l748 408l-748 407l62 113l845 -467v-107l-845 -466z" />
<glyph unicode="?" horiz-adv-x="974" d="M113 1389q58 15 155.5 25.5t175.5 10.5q123 0 202 -21.5t122 -70t58.5 -112.5t15.5 -164q0 -62 -1.5 -98.5t-8.5 -75.5t-18 -63.5t-33 -54.5t-50.5 -56.5t-73.5 -61.5q-48 -38 -129.5 -99t-117.5 -89l-99 131q21 16 100 74t128 98q40 32 62.5 55t38 43.5t21 50t7.5 56.5 t2 82q0 70 -7 108t-32.5 67t-71.5 38.5t-127 9.5q-161 0 -297 -31zM309 0v236h176v-236h-176z" />
<glyph unicode="@" horiz-adv-x="1523" d="M123 682q0 203 83.5 363t236 249.5t348.5 89.5q296 0 458 -152.5t162 -410.5q0 -183 -94 -298t-273 -115q-128 0 -174 73q-105 -57 -211 -57q-83 0 -121 45t-24 123l41 235q19 100 76 142.5t170 42.5t243 -58l-75 -430q32 -12 80 -12q64 0 111.5 25.5t73.5 70t38 96.5 t12 113q0 207 -129.5 329t-363.5 122q-230 0 -383.5 -163.5t-153.5 -422.5q0 -270 153.5 -428t446.5 -158q172 0 365 78l36 -102q-171 -92 -405 -92q-173 0 -311 50.5t-229 143t-139 221.5t-48 287zM635 604q-7 -40 7 -54.5t60 -14.5q36 0 82.5 13t75.5 34l53 305 q-72 22 -131 22q-94 0 -108 -84z" />
<glyph unicode="A" d="M57 0l461 1364h238l461 -1364h-179l-112 328h-580l-110 -328h-179zM393 481h488l-244 756z" />
<glyph unicode="B" horiz-adv-x="1169" d="M174 0v1364h526q160 0 241 -70.5t81 -206.5v-157q0 -84 -35 -140t-121 -88q93 -16 147 -78t54 -167v-164q0 -140 -91 -216.5t-247 -76.5h-555zM350 152h355q186 0 186 155v144q0 167 -197 167h-344v-466zM350 770h312q184 0 184 160v153q0 66 -38 97.5t-118 31.5h-340 v-442z" />
<glyph unicode="C" horiz-adv-x="1056" d="M143 381v602q0 199 111.5 300t355.5 101q191 0 344 -36l-18 -152q-168 29 -320 29q-167 0 -232 -55t-65 -197v-582q0 -142 65 -197t232 -55q152 0 320 29l18 -152q-153 -36 -344 -36q-244 0 -355.5 101t-111.5 300z" />
<glyph unicode="D" horiz-adv-x="1222" d="M174 0v1364h477q98 0 174 -20t125.5 -55t81 -85t45 -106.5t13.5 -124.5v-582q0 -68 -13.5 -124.5t-45 -106.5t-81 -85t-125.5 -55t-174 -20h-477zM350 158h295q149 0 208.5 59.5t59.5 185.5v558q0 126 -59.5 185.5t-208.5 59.5h-295v-1048z" />
<glyph unicode="E" horiz-adv-x="1105" d="M174 0v1364h803v-158h-627v-428h582v-157h-582v-463h629v-158h-805z" />
<glyph unicode="F" horiz-adv-x="1067" d="M174 0v1364h811v-158h-635v-454h592v-158h-592v-594h-176z" />
<glyph unicode="G" horiz-adv-x="1183" d="M143 381v600q0 209 112.5 306t365.5 97q190 0 378 -43l-20 -151q-199 35 -367 35q-167 0 -230 -56t-63 -196v-582q0 -69 12 -113.5t43 -77t87 -47t143 -14.5q125 0 256 25v463h170v-588q-201 -59 -432 -59q-128 0 -217.5 26.5t-141 80t-74 125t-22.5 169.5z" />
<glyph unicode="H" horiz-adv-x="1304" d="M174 0v1364h176v-588h604v588h176v-1364h-176v618h-604v-618h-176z" />
<glyph unicode="I" horiz-adv-x="544" d="M184 0v1364h176v-1364h-176z" />
<glyph unicode="J" horiz-adv-x="524" d="M-18 -281q65 62 93.5 91t54 57t32 47t9.5 36t3 50v1364h176v-1370q0 -33 -0.5 -54t-7.5 -46.5t-10.5 -38.5t-23 -40t-30 -40t-47.5 -49.5t-59 -57.5t-80 -74z" />
<glyph unicode="K" horiz-adv-x="1204" d="M174 0v1364h176v-1364h-176zM393 694l492 670h207l-500 -670l541 -694h-211z" />
<glyph unicode="L" horiz-adv-x="1024" d="M174 0v1364h176v-1206h592v-158h-768z" />
<glyph unicode="M" horiz-adv-x="1634" d="M154 0l47 1364h223l393 -1055l393 1055h224l47 -1364h-170l-27 1106l-348 -930h-238l-348 930l-26 -1106h-170z" />
<glyph unicode="N" horiz-adv-x="1351" d="M174 0v1364h242l594 -1167v1167h168v-1364h-242l-594 1161v-1161h-168z" />
<glyph unicode="O" d="M143 393v578q0 88 28.5 161t86 130.5t154.5 89.5t225 32q103 0 186 -21.5t139.5 -58.5t95 -89.5t55.5 -113t17 -130.5v-578q0 -70 -17 -130.5t-55.5 -113t-95 -89.5t-139.5 -58.5t-186 -21.5q-128 0 -225 32t-154.5 89.5t-86 130.5t-28.5 161zM319 397q0 -128 79.5 -195 t238.5 -67t238 67t79 195v570q0 128 -79 195t-238 67t-238.5 -67t-79.5 -195v-570z" />
<glyph unicode="P" horiz-adv-x="1140" d="M174 0v1364h494q211 0 303 -85.5t92 -250.5v-203q0 -166 -92 -252t-303 -86h-318v-487h-176zM350 645h312q126 0 175.5 40t49.5 140v201q0 101 -49.5 140.5t-175.5 39.5h-312v-561z" />
<glyph unicode="Q" d="M143 393v578q0 88 28.5 161t86 130.5t154.5 89.5t225 32q103 0 186 -21.5t139.5 -58.5t95 -89.5t55.5 -113t17 -130.5v-578q0 -156 -88 -264t-268 -137l115 -260l-158 -72l-141 322q-116 6 -203 40t-139.5 90.5t-78.5 126.5t-26 154zM319 397q0 -128 79.5 -195t238.5 -67 t238 67t79 195v570q0 128 -79 195t-238 67t-238.5 -67t-79.5 -195v-570z" />
<glyph unicode="R" horiz-adv-x="1294" d="M174 0v1364h520q211 0 303.5 -85.5t92.5 -250.5v-197q0 -126 -51.5 -205t-166.5 -112l355 -514h-203l-340 494h-334v-494h-176zM350 649h338q126 0 175.5 40t49.5 140v197q0 101 -49.5 140.5t-175.5 39.5h-338v-557z" />
<glyph unicode="S" horiz-adv-x="1105" d="M123 51l29 144q192 -60 380 -60q83 0 134 11t80.5 37.5t40 64.5t10.5 100v50.5t-2.5 41t-5.5 35t-11 27.5t-17 23.5t-26.5 19t-35.5 18t-48 15t-60.5 17t-76.5 17.5q-86 19 -142 36.5t-100 43t-67 51.5t-37.5 71t-18.5 93t-4 125q0 124 38.5 198.5t135 114t263.5 39.5 q199 0 368 -45l-14 -149q-170 39 -350 39q-85 0 -135.5 -9t-80 -34t-39 -61t-9.5 -99v-51.5t2.5 -41t4.5 -35t10.5 -27t16 -23t25.5 -18t33.5 -17.5t46 -15.5t58 -17t73.5 -18.5q71 -18 120.5 -32.5t91.5 -32.5t68 -33.5t46 -41t30 -47t16 -60t7.5 -72.5t1.5 -91 q0 -76 -10 -130.5t-38.5 -102.5t-78 -77t-128.5 -45.5t-190 -16.5q-228 0 -405 71z" />
<glyph unicode="T" horiz-adv-x="1073" d="M41 1206v158h991v-158h-407v-1206h-176v1206h-408z" />
<glyph unicode="U" horiz-adv-x="1294" d="M164 383v981h176v-971q0 -128 74 -192t233 -64t233 64t74 192v971h176v-981q0 -87 -26.5 -157.5t-81.5 -127t-150.5 -87.5t-224.5 -31t-224.5 31t-150.5 87.5t-81.5 127t-26.5 157.5z" />
<glyph unicode="V" horiz-adv-x="1212" d="M37 1364h170l399 -1210l400 1210h170l-451 -1364h-238z" />
<glyph unicode="W" horiz-adv-x="1859" d="M41 1364h172l311 -1196l283 1196h246l282 -1196l312 1196h172l-359 -1364h-248l-282 1219l-283 -1219h-248z" />
<glyph unicode="X" horiz-adv-x="1206" d="M61 0l443 692l-428 672h188l338 -533l340 533h188l-430 -672l445 -692h-189l-354 553l-352 -553h-189z" />
<glyph unicode="Y" horiz-adv-x="1122" d="M20 1364h185l356 -762l357 762h184l-453 -952v-412h-176v412z" />
<glyph unicode="Z" horiz-adv-x="1187" d="M143 0v152l703 1060h-690v152h884v-152l-704 -1060h719v-152h-912z" />
<glyph unicode="[" horiz-adv-x="632" d="M195 -258v1876h397v-148h-225v-1581h225v-147h-397z" />
<glyph unicode="\" horiz-adv-x="903" d="M123 1384h164l504 -1624h-162z" />
<glyph unicode="]" horiz-adv-x="632" d="M41 -111h225v1581h-225v148h397v-1876h-397v147z" />
<glyph unicode="^" horiz-adv-x="942" d="M92 836l305 569h148l305 -569l-123 -64l-256 483l-256 -483z" />
<glyph unicode="_" horiz-adv-x="880" d="M-2 -20h885v-80h-885v80z" />
<glyph unicode="`" horiz-adv-x="641" d="M143 1296l74 115q97 -80 281 -186l-70 -107q-159 84 -285 178z" />
<glyph unicode="a" horiz-adv-x="1009" d="M127 266q0 151 75 216t230 65h266v155q0 94 -48 131t-169 37q-143 0 -299 -32l-18 137q162 43 328 43q207 0 292.5 -79t85.5 -245v-694h-145l-10 74q-136 -94 -324 -94q-264 0 -264 286zM299 270q0 -82 26.5 -112.5t114.5 -30.5q131 0 258 82v194h-254 q-80 0 -112.5 -29.5t-32.5 -103.5z" />
<glyph unicode="b" horiz-adv-x="1062" d="M164 18v1387l172 25v-482q57 30 141 50t174 20q150 0 221.5 -81.5t71.5 -229.5v-355q0 -90 -18.5 -154.5t-64.5 -115.5t-131 -76.5t-210 -25.5q-194 0 -356 38zM336 145q95 -14 196 -14q74 0 122.5 14t73.5 44t34.5 66.5t9.5 90.5v367q0 78 -38 115.5t-124 37.5 q-60 0 -137 -23t-137 -52v-646z" />
<glyph unicode="c" horiz-adv-x="837" d="M102 342v313q0 90 19 154t63 112.5t122.5 72.5t193.5 24q138 0 237 -31l-14 -143q-107 22 -219 22q-130 0 -180 -44t-50 -160v-326q0 -116 50 -160.5t180 -44.5q107 0 219 23l16 -144q-96 -30 -239 -30q-117 0 -196 23.5t-123 72.5t-61.5 112t-17.5 154z" />
<glyph unicode="d" horiz-adv-x="1071" d="M127 285v407q0 326 324 326q129 0 284 -31v418l172 25v-1430h-145l-14 90q-137 -110 -330 -110q-291 0 -291 305zM299 285q0 -80 33.5 -117t120.5 -37q71 0 147.5 33.5t134.5 85.5v586q-153 30 -274 30q-86 0 -124 -41.5t-38 -132.5v-407z" />
<glyph unicode="e" horiz-adv-x="985" d="M113 346v299q0 81 20 146t63.5 117.5t121.5 81t186 28.5q107 0 182.5 -29t116.5 -82.5t58.5 -118t17.5 -147.5v-209h-594v-84q0 -124 48 -172.5t189 -48.5q139 0 316 47l22 -137q-153 -57 -352 -57q-212 0 -303.5 94t-91.5 272zM285 575h428v82q0 110 -46.5 163.5 t-162.5 53.5q-118 0 -168.5 -54t-50.5 -163v-82z" />
<glyph unicode="f" horiz-adv-x="722" d="M61 854v143h177v185q0 131 71.5 197.5t210.5 66.5q104 0 203 -29l-14 -133q-101 19 -166 19q-78 0 -105.5 -30.5t-27.5 -107.5v-168h284l-14 -143h-270v-854h-172v854h-177z" />
<glyph unicode="g" horiz-adv-x="1003" d="M92 631v45q0 169 91 255.5t298 86.5q97 0 168 -21h287v-100l-119 -23q52 -71 55 -198v-45q0 -163 -99 -251.5t-292 -88.5q-55 0 -102 6q-72 -60 -72 -107q0 -28 15.5 -41t50.5 -16q49 -5 133 -14t149 -15q135 -13 192.5 -69t57.5 -170q0 -86 -17 -137.5t-66 -87.5 t-132.5 -50t-220.5 -14q-75 0 -179 12.5t-184 34.5l25 135q171 -41 334 -41q126 0 185.5 14.5t76 41t16.5 84.5q0 61 -28 80.5t-119 27.5q-48 4 -124 12t-140 13q-195 16 -195 182q0 103 94 176q-139 78 -139 283zM254 631q0 -112 51 -155.5t176 -43.5q120 0 174 49t54 150 v43q0 109 -52 156t-176 47t-175.5 -46t-51.5 -157v-43z" />
<glyph unicode="h" horiz-adv-x="1091" d="M164 0v1405l172 25v-517q92 44 197.5 74.5t187.5 30.5q217 0 217 -254v-764h-172v762q0 48 -24 70t-72 22q-56 0 -155.5 -30.5t-178.5 -71.5v-752h-172z" />
<glyph unicode="i" horiz-adv-x="499" d="M164 0v997h172v-997h-172zM164 1157v248h172v-248h-172z" />
<glyph unicode="j" horiz-adv-x="489" d="M0 -293q85 75 117 111t39.5 58.5t7.5 70.5v1050h172v-1060q0 -76 -15 -116.5t-57 -86t-160 -148.5zM164 1157v248h172v-248h-172z" />
<glyph unicode="k" horiz-adv-x="991" d="M164 0v1405l172 25v-1430h-172zM379 504l352 493h199l-357 -493l373 -504h-203z" />
<glyph unicode="l" horiz-adv-x="499" d="M164 0v1405l172 25v-1430h-172z" />
<glyph unicode="m" horiz-adv-x="1693" d="M164 0v997h139l16 -86q91 43 204.5 75t197.5 32q144 0 190 -107q95 45 208.5 76t203.5 31q217 0 217 -254v-764h-172v762q0 48 -24 70t-72 22q-61 0 -157 -29t-177 -71v-754h-172v762q0 48 -24 70t-72 22q-56 0 -155.5 -29.5t-178.5 -70.5v-754h-172z" />
<glyph unicode="n" horiz-adv-x="1091" d="M164 0v997h139l16 -86q91 43 204.5 75t197.5 32q217 0 217 -254v-764h-172v762q0 48 -24 70t-72 22q-56 0 -155.5 -29.5t-178.5 -70.5v-754h-172z" />
<glyph unicode="o" horiz-adv-x="1036" d="M113 354v289q0 81 23 147.5t70 118t126.5 80.5t185.5 29q207 0 306.5 -103.5t99.5 -271.5v-289q0 -168 -99.5 -271t-306.5 -103t-306 103t-99 271zM285 348q0 -219 233 -219q234 0 234 219v301q0 219 -234 219q-233 0 -233 -219v-301z" />
<glyph unicode="p" horiz-adv-x="1071" d="M164 -428v1425h145l15 -90q138 111 329 111q291 0 291 -305v-408q0 -325 -323 -325q-135 0 -285 30v-413zM336 162q158 -31 274 -31q86 0 124 41.5t38 132.5v408q0 80 -33.5 116.5t-120.5 36.5q-71 0 -147.5 -33t-134.5 -85v-586z" />
<glyph unicode="q" horiz-adv-x="1062" d="M119 291v354q0 91 18.5 155t64.5 115.5t131 77t210 25.5q190 0 356 -39v-1382l-172 -25v477q-56 -30 -140.5 -49.5t-174.5 -19.5q-150 0 -221.5 81.5t-71.5 229.5zM291 285q0 -78 38 -116t124 -38q60 0 136.5 23t137.5 53v645q-95 14 -197 14q-74 0 -122.5 -14t-73.5 -44 t-34 -66.5t-9 -90.5v-366z" />
<glyph unicode="r" horiz-adv-x="630" d="M164 0v997h149l11 -139q129 99 274 160l23 -158q-121 -58 -285 -172v-688h-172z" />
<glyph unicode="s" horiz-adv-x="899" d="M123 33l22 135q141 -41 285 -41q116 0 150 26.5t34 108.5q0 31 -1 46.5t-8.5 33t-18.5 26t-37 20.5t-57.5 20.5t-85.5 21.5q-64 16 -106.5 30t-74 34.5t-48.5 40.5t-27 54t-12.5 69t-2.5 92q0 142 76 205t268 63q158 0 283 -35l-12 -141q-147 28 -277 28 q-73 0 -109.5 -13.5t-47.5 -38t-11 -73.5q0 -34 0.5 -49t6 -35t15 -28.5t30 -20.5t47.5 -20t71 -19q76 -19 123 -33.5t84.5 -34t55 -37t29.5 -49.5t14.5 -64t2.5 -87q0 -62 -8.5 -105.5t-30.5 -80t-61 -58t-99 -33t-145 -11.5q-77 0 -167 15t-150 38z" />
<glyph unicode="t" horiz-adv-x="755" d="M51 854v143h176v246l172 25v-271h283l-14 -143h-269v-618q0 -61 19 -86t84 -25q62 0 160 25l22 -134q-95 -36 -209 -36q-129 0 -188.5 52.5t-59.5 174.5v647h-176z" />
<glyph unicode="u" horiz-adv-x="1091" d="M154 233v764h172v-761q0 -93 96 -93q56 0 155.5 30t178.5 71v753h172v-997h-140l-16 86q-90 -43 -203.5 -74.5t-197.5 -31.5q-217 0 -217 253z" />
<glyph unicode="v" horiz-adv-x="921" d="M16 997h170l275 -856l274 856h170l-330 -997h-229z" />
<glyph unicode="w" horiz-adv-x="1425" d="M37 997h164l166 -827l241 827h209l242 -827l166 827h164l-213 -997h-222l-241 846l-242 -846h-221z" />
<glyph unicode="x" horiz-adv-x="917" d="M37 0l328 502l-322 495h178l238 -366l237 366h178l-323 -495l330 -502h-181l-241 371l-240 -371h-182z" />
<glyph unicode="y" horiz-adv-x="917" d="M16 997h170l273 -860l276 860h170l-330 -997l-141 -403h-162l140 403h-72z" />
<glyph unicode="z" horiz-adv-x="940" d="M123 0v139l508 719h-498v139h688l-2 -139l-508 -719h516v-139h-704z" />
<glyph unicode="{" horiz-adv-x="641" d="M113 594v139h47q49 0 67.5 21t18.5 65v529q0 146 52.5 208t188.5 62h134v-145h-123q-43 0 -61.5 -19t-18.5 -63v-494v-11q0 -25 -0.5 -40.5t-3.5 -45t-12 -49t-23.5 -41t-39.5 -33t-58 -13.5q33 -2 58 -13.5t39.5 -33.5t23.5 -41t12 -49.5t3.5 -45t0.5 -40.5v-4v-3v-4 v-493q0 -44 18.5 -63t61.5 -19h123v-146h-134q-136 0 -188.5 62.5t-52.5 208.5v528q0 44 -18.5 65t-67.5 21h-47z" />
<glyph unicode="|" horiz-adv-x="526" d="M205 -430v2048h117v-2048h-117z" />
<glyph unicode="}" horiz-adv-x="641" d="M20 -145h123q43 0 61.5 19t18.5 63v493v11q0 25 0.5 40.5t3.5 45t12 49.5t23.5 41.5t39.5 33t58 13.5q-33 2 -58 13.5t-39.5 33.5t-23.5 40.5t-12 49t-3.5 45t-0.5 40.5v11v494q0 44 -18.5 63t-61.5 19h-123v145h134q136 0 188.5 -62t52.5 -208v-529q0 -44 18.5 -65 t67.5 -21h47v-139h-47q-49 0 -67.5 -21t-18.5 -65v-528q0 -146 -52.5 -208.5t-188.5 -62.5h-134v146z" />
<glyph unicode="~" horiz-adv-x="1024" d="M92 463q45 118 105.5 178.5t156.5 60.5q38 0 75.5 -15.5t67.5 -38t59 -44.5t59.5 -37.5t58.5 -15.5q32 0 55.5 11.5t42 39.5t26.5 45.5t25 59.5l109 -50q-80 -241 -260 -241q-50 0 -98.5 23.5t-80 51t-70.5 51t-71 23.5q-56 0 -86 -36t-65 -119z" />
<glyph unicode="&#xa1;" horiz-adv-x="544" d="M184 762v235h176v-235h-176zM186 260l33 348h107l32 -348v-663h-172v663z" />
<glyph unicode="&#xa2;" horiz-adv-x="868" d="M113 524v314q0 161 66.5 249t232.5 107v190h137v-184q110 -6 194 -26l-10 -144q-109 19 -219 19q-129 0 -179 -44t-50 -161v-326q0 -117 50 -161t179 -44q100 0 219 19l12 -144q-91 -23 -196 -26v-182h-137v186q-88 10 -147 38t-92 75t-46.5 105.5t-13.5 139.5z" />
<glyph unicode="&#xa3;" horiz-adv-x="1091" d="M143 612v136h179q-41 67 -61.5 143.5t-20.5 140.5q0 163 90.5 237t300.5 74q167 0 325 -43l-20 -141q-60 15 -150.5 26t-154.5 11q-125 0 -172 -36.5t-47 -137.5q0 -124 88 -274h393l-6 -136h-350q16 -40 16 -94q0 -188 -174 -368h579v-150h-788v150q211 167 211 368 q0 51 -19 94h-219z" />
<glyph unicode="&#xa4;" horiz-adv-x="1138" d="M143 268l131 131q-34 53 -34 144v288q0 86 34 142l-131 131l107 106l141 -141q70 31 178 31q98 0 179 -31l141 141l106 -106l-131 -131q35 -57 35 -142v-288q0 -89 -35 -144l131 -131l-106 -106l-141 141q-73 -31 -179 -31q-105 0 -178 29l-141 -139zM393 569 q0 -86 36.5 -121.5t139.5 -35.5q100 0 138 35.5t38 121.5v234q0 86 -38 122t-138 36q-102 0 -139 -36t-37 -122v-234z" />
<glyph unicode="&#xa5;" horiz-adv-x="1126" d="M41 1323h184l338 -721l338 721h184l-286 -600h211v-121h-269l-90 -190h359v-121h-359v-291h-176v291h-356v121h356l-92 190h-264v121h207z" />
<glyph unicode="&#xa6;" horiz-adv-x="526" d="M205 424h117v-854h-117v854zM205 764v854h117v-854h-117z" />
<glyph unicode="&#xa7;" horiz-adv-x="1128" d="M143 1153q0 123 67 177t224 54q71 0 156 -14.5t147 -36.5l-22 -123q-175 41 -285 41q-78 0 -103.5 -24t-25.5 -92q0 -350 244 -1090l-144 -45q-258 740 -258 1153zM401 -330l23 123q175 -41 285 -41q78 0 103.5 24.5t25.5 92.5q0 349 -244 1089l143 46 q258 -740 258 -1154q0 -123 -66.5 -177t-223.5 -54q-71 0 -156.5 14.5t-147.5 36.5z" />
<glyph unicode="&#xa8;" horiz-adv-x="800" d="M143 1149v170h160v-170h-160zM498 1149v170h159v-170h-159z" />
<glyph unicode="&#xa9;" horiz-adv-x="1648" d="M123 682q0 194 86 353.5t247 254t367 94.5q156 0 289 -55t223 -150t140.5 -223.5t50.5 -273.5q0 -144 -50.5 -272.5t-140.5 -223.5t-223 -150.5t-289 -55.5q-206 0 -367 95t-247 254.5t-86 352.5zM250 682q0 -162 69 -294t200.5 -210t303.5 -78q130 0 239 45.5t182.5 124 t114 185t40.5 227.5t-40.5 227.5t-114 185t-182.5 124t-239 45.5q-172 0 -303.5 -78t-200.5 -210t-69 -294zM580 547v282q0 116 61 169t205 53q100 0 196 -27l-12 -109q-96 21 -180 21q-91 0 -117 -23.5t-26 -95.5v-258q0 -72 26 -95.5t117 -23.5q84 0 180 21l12 -109 q-93 -26 -196 -26q-144 0 -205 52.5t-61 168.5z" />
<glyph unicode="&#xaa;" horiz-adv-x="776" d="M154 961q0 94 45.5 134t142.5 40h164v96q0 59 -29 81.5t-104 22.5q-82 0 -185 -22l-12 86q95 26 203 26q128 0 180.5 -48.5t52.5 -151.5v-428h-90l-6 45q-83 -58 -199 -58q-163 0 -163 177zM260 965q0 -51 16 -71t70 -20q81 0 160 52v121h-156q-50 0 -70 -18t-20 -64z " />
<glyph unicode="&#xab;" horiz-adv-x="991" d="M82 500l260 395l119 -78l-209 -317l209 -318l-119 -78zM479 500l260 395l119 -78l-209 -317l209 -318l-119 -78z" />
<glyph unicode="&#xac;" horiz-adv-x="1128" d="M123 469v143h831v-489h-151v346h-680z" />
<glyph unicode="&#xad;" horiz-adv-x="757" d="M123 500v141h512v-141h-512z" />
<glyph unicode="&#xae;" horiz-adv-x="964" d="M113 1055q0 158 102 264t268 106t267.5 -106t101.5 -264t-101.5 -264.5t-267.5 -106.5t-268 106.5t-102 264.5zM199 1055q0 -125 74.5 -207t209.5 -82q134 0 208.5 82.5t74.5 206.5t-74.5 206t-208.5 82q-135 0 -209.5 -81.5t-74.5 -206.5zM369 893v340h133 q106 0 106 -90v-47q0 -55 -49 -80l90 -123h-69l-84 113h-70v-113h-57zM426 1059h74q49 0 49 39v41q0 24 -11 32.5t-38 8.5h-74v-121z" />
<glyph unicode="&#xaf;" horiz-adv-x="759" d="M133 1139v121h494v-121h-494z" />
<glyph unicode="&#xb0;" horiz-adv-x="712" d="M123 1110q0 101 61.5 167t171.5 66t172 -66t62 -167t-62 -167t-172 -66t-171.5 66t-61.5 167zM227 1110q0 -62 33 -101.5t96 -39.5t96 39.5t33 101.5t-33 101.5t-96 39.5t-96 -39.5t-33 -101.5z" />
<glyph unicode="&#xb1;" horiz-adv-x="1118" d="M143 0v135h832v-135h-832zM143 614v144h340v346h152v-346h340v-144h-340v-346h-152v346h-340z" />
<glyph unicode="&#xb2;" horiz-adv-x="794" d="M143 498v106q104 123 203 242q102 124 124 162.5t22 81.5v30q0 58 -26.5 78.5t-105.5 20.5q-80 0 -190 -27l-20 117q104 34 221 34q136 0 197 -50.5t61 -159.5v-39q0 -70 -22 -115.5t-107 -153.5q-95 -120 -168 -207h299v-120h-488z" />
<glyph unicode="&#xb3;" horiz-adv-x="790" d="M154 508l14 108q108 -18 207 -18q78 0 103.5 22t25.5 76v68q0 92 -115 92h-188v117h190q54 0 75 22t21 62v82q0 50 -27.5 69t-97.5 19q-104 0 -186 -15l-10 109q90 22 203 22q137 0 194.5 -45t57.5 -149v-86q0 -102 -89 -145q105 -32 105 -152v-72q0 -112 -58 -162.5 t-210 -50.5q-112 0 -215 27z" />
<glyph unicode="&#xb4;" horiz-adv-x="641" d="M143 1225q184 106 281 186l74 -115q-126 -94 -285 -178z" />
<glyph unicode="&#xb5;" horiz-adv-x="1091" d="M154 -403v1400h172v-772q3 -82 96 -82q56 0 155.5 30t178.5 71v753h172v-997h-140l-16 86q-90 -43 -203.5 -74.5t-197.5 -31.5q-17 0 -45 4v-387h-172z" />
<glyph unicode="&#xb6;" horiz-adv-x="1052" d="M133 936q0 183 122 305.5t304 122.5v-854q-181 0 -303.5 122t-122.5 304zM508 -322q103 98 142 138.5t50 61t11 48.5v1438h147v-1444q0 -72 -32 -114.5t-216 -217.5l-12 -12z" />
<glyph unicode="&#xb7;" horiz-adv-x="524" d="M174 543v235h176v-235h-176z" />
<glyph unicode="&#xb8;" horiz-adv-x="634" d="M133 -373l21 84q70 -20 127 -20q110 0 110 63q0 32 -20.5 46t-65.5 14q-24 0 -61 -11l-60 27l43 197h99l-29 -142q27 6 55 6q70 0 110 -34t40 -101q0 -72 -52 -115.5t-153 -43.5q-86 0 -164 30z" />
<glyph unicode="&#xb9;" horiz-adv-x="681" d="M113 1184l243 139h111v-829h-137v669l-166 -84z" />
<glyph unicode="&#xba;" horiz-adv-x="806" d="M154 1016v178q0 104 60.5 167.5t188.5 63.5q127 0 188.5 -63.5t61.5 -167.5v-178q0 -104 -61.5 -168t-188.5 -64q-128 0 -188.5 64t-60.5 168zM258 1012q0 -135 145 -135q144 0 144 135v186q0 135 -144 135q-145 0 -145 -135v-186z" />
<glyph unicode="&#xbb;" horiz-adv-x="991" d="M133 182l209 318l-209 317l119 78l260 -395l-260 -396zM530 182l209 318l-209 317l119 78l260 -395l-260 -396z" />
<glyph unicode="&#xbc;" horiz-adv-x="1710" d="M123 1184l244 139h110v-829h-137v669l-166 -84zM457 -20l569 1411l113 -48l-568 -1411zM934 178v113l323 538h189v-538h121v-113h-121v-178h-131v178h-381zM1077 291h238v416z" />
<glyph unicode="&#xbd;" horiz-adv-x="1742" d="M123 1184l244 139h110v-829h-137v669l-166 -84zM455 -20l569 1411l113 -48l-568 -1411zM1092 0v106q67 79 202 242q102 124 124 162.5t22 81.5v31q0 58 -26 78t-105 20q-81 0 -191 -27l-20 117q107 35 221 35q136 0 197 -51t61 -160v-39q0 -70 -22 -115t-107 -153 q-95 -120 -168 -207h299v-121h-487z" />
<glyph unicode="&#xbe;" horiz-adv-x="1781" d="M154 508l14 108q108 -18 207 -18q78 0 103.5 22t25.5 76v68q0 92 -115 92h-188v117h190q54 0 75 22t21 62v82q0 50 -27.5 69t-97.5 19q-104 0 -186 -15l-10 109q90 22 203 22q137 0 194.5 -45t57.5 -149v-86q0 -102 -89 -145q105 -32 105 -152v-72q0 -112 -58 -162.5 t-210 -50.5q-112 0 -215 27zM532 -20l570 1411l112 -48l-567 -1411zM1006 178v113l323 538h189v-538h120v-113h-120v-178h-132v178h-380zM1149 291h237v416z" />
<glyph unicode="&#xbf;" horiz-adv-x="974" d="M133 -55q0 62 1.5 98t8 75.5t17.5 64t33 54.5t50.5 56t73.5 61q48 38 130.5 100t117.5 89l99 -131q-21 -16 -100 -74t-128 -98q-40 -32 -62.5 -55t-38 -43.5t-21 -50t-7.5 -56.5t-2 -82q0 -70 7 -108t32.5 -67t71.5 -38.5t127 -9.5q165 0 297 30l22 -147 q-59 -15 -156.5 -26t-175.5 -11q-123 0 -202 21.5t-121.5 70.5t-58 113t-15.5 164zM489 762v235h177v-235h-177z" />
<glyph unicode="&#xc0;" d="M57 0l461 1364h238l461 -1364h-179l-112 328h-580l-110 -328h-179zM393 481h488l-244 756zM395 1618l78 119q118 -88 256 -168l-70 -113q-144 72 -264 162z" />
<glyph unicode="&#xc1;" d="M57 0l461 1364h238l461 -1364h-179l-112 328h-580l-110 -328h-179zM393 481h488l-244 756zM561 1569q138 80 256 168l78 -119q-120 -90 -264 -162z" />
<glyph unicode="&#xc2;" d="M57 0l461 1364h238l461 -1364h-179l-112 328h-580l-110 -328h-179zM381 1552q149 90 256 174q107 -84 256 -174l-53 -96q-85 40 -203 115q-118 -75 -203 -115zM393 481h488l-244 756z" />
<glyph unicode="&#xc3;" d="M57 0l461 1364h238l461 -1364h-179l-112 328h-580l-110 -328h-179zM354 1556q33 53 81.5 88t101.5 35q49 0 116 -34q80 -41 113 -41q54 0 92 61l84 -57q-59 -129 -176 -129q-53 0 -123 37q-68 38 -108 38q-30 0 -54 -17t-53 -50zM393 481h488l-244 756z" />
<glyph unicode="&#xc4;" d="M57 0l461 1364h238l461 -1364h-179l-112 328h-580l-110 -328h-179zM375 1483v159h164v-159h-164zM393 481h488l-244 756zM737 1483v159h164v-159h-164z" />
<glyph unicode="&#xc5;" d="M57 0l461 1364h238l461 -1364h-179l-112 328h-580l-110 -328h-179zM393 481h488l-244 756zM496 1567q0 61 36.5 101t104.5 40t105.5 -40t37.5 -101q0 -60 -37.5 -100t-105.5 -40t-104.5 40t-36.5 100zM575 1567q0 -30 16.5 -48t45.5 -18q30 0 45.5 18t15.5 48 q0 67 -61 67q-29 0 -45.5 -18t-16.5 -49z" />
<glyph unicode="&#xc6;" horiz-adv-x="1718" d="M57 0l461 1364h1065v-158h-774l143 -428h586v-157h-532l157 -463h422v-158h-547l-112 328h-580l-110 -328h-179zM393 481h488l-244 756z" />
<glyph unicode="&#xc7;" horiz-adv-x="1056" d="M143 381v602q0 199 111.5 300t355.5 101q191 0 344 -36l-18 -152q-168 29 -320 29q-167 0 -232 -55t-65 -197v-582q0 -142 65 -197t232 -55q152 0 320 29l18 -152q-149 -32 -325 -36l-23 -109q27 6 56 6q70 0 109.5 -34t39.5 -101q0 -72 -52 -116t-153 -44q-83 0 -164 31 l21 84q73 -21 127 -21q110 0 110 64q0 32 -20.5 45.5t-65.5 13.5q-28 0 -61 -10l-59 27l36 168q-202 15 -294.5 114.5t-92.5 282.5z" />
<glyph unicode="&#xc8;" horiz-adv-x="1105" d="M174 0v1364h803v-158h-627v-428h582v-157h-582v-463h629v-158h-805zM356 1618l78 119q118 -88 256 -168l-69 -113q-147 74 -265 162z" />
<glyph unicode="&#xc9;" horiz-adv-x="1105" d="M174 0v1364h803v-158h-627v-428h582v-157h-582v-463h629v-158h-805zM469 1569q138 80 256 168l78 -119q-120 -90 -264 -162z" />
<glyph unicode="&#xca;" horiz-adv-x="1105" d="M174 0v1364h803v-158h-627v-428h582v-157h-582v-463h629v-158h-805zM338 1552q149 90 256 174q107 -84 256 -174l-53 -96q-85 40 -203 115q-118 -75 -203 -115z" />
<glyph unicode="&#xcb;" horiz-adv-x="1105" d="M174 0v1364h803v-158h-627v-428h582v-157h-582v-463h629v-158h-805zM311 1483v159h164v-159h-164zM674 1483v159h164v-159h-164z" />
<glyph unicode="&#xcc;" horiz-adv-x="544" d="M23 1618l77 119q118 -88 256 -168l-69 -113q-144 72 -264 162zM184 0v1364h176v-1364h-176z" />
<glyph unicode="&#xcd;" horiz-adv-x="544" d="M184 0v1364h176v-1364h-176zM197 1569q138 80 256 168l77 -119q-120 -90 -264 -162z" />
<glyph unicode="&#xce;" horiz-adv-x="544" d="M16 1552q149 90 256 174q107 -84 256 -174l-53 -96q-85 40 -203 115q-121 -77 -202 -115zM184 0v1364h176v-1364h-176z" />
<glyph unicode="&#xcf;" horiz-adv-x="544" d="M10 1483v159h164v-159h-164zM184 0v1364h176v-1364h-176zM373 1483v159h164v-159h-164z" />
<glyph unicode="&#xd0;" horiz-adv-x="1292" d="M82 621v143h162v600h477q438 0 438 -391v-582q0 -391 -438 -391h-477v621h-162zM420 158h295q149 0 208.5 59.5t59.5 185.5v558q0 126 -59.5 185.5t-208.5 59.5h-295v-442h270v-143h-270v-463z" />
<glyph unicode="&#xd1;" horiz-adv-x="1351" d="M174 0v1364h242l594 -1167v1167h168v-1364h-242l-594 1161v-1161h-168zM399 1556q33 53 81.5 88t101.5 35q49 0 116 -34q80 -41 113 -41q54 0 92 61l84 -57q-59 -129 -176 -129q-53 0 -123 37q-68 38 -108 38q-30 0 -54 -17t-53 -50z" />
<glyph unicode="&#xd2;" d="M143 393v578q0 88 28.5 161t86 130.5t154.5 89.5t225 32q103 0 186 -21.5t139.5 -58.5t95 -89.5t55.5 -113t17 -130.5v-578q0 -70 -17 -130.5t-55.5 -113t-95 -89.5t-139.5 -58.5t-186 -21.5q-128 0 -225 32t-154.5 89.5t-86 130.5t-28.5 161zM319 397q0 -128 79.5 -195 t238.5 -67t238 67t79 195v570q0 128 -79 195t-238 67t-238.5 -67t-79.5 -195v-570zM399 1618l78 119q118 -88 256 -168l-69 -113q-147 74 -265 162z" />
<glyph unicode="&#xd3;" d="M143 393v578q0 88 28.5 161t86 130.5t154.5 89.5t225 32q103 0 186 -21.5t139.5 -58.5t95 -89.5t55.5 -113t17 -130.5v-578q0 -70 -17 -130.5t-55.5 -113t-95 -89.5t-139.5 -58.5t-186 -21.5q-128 0 -225 32t-154.5 89.5t-86 130.5t-28.5 161zM319 397q0 -128 79.5 -195 t238.5 -67t238 67t79 195v570q0 128 -79 195t-238 67t-238.5 -67t-79.5 -195v-570zM543 1569q138 80 256 168l78 -119q-118 -88 -265 -162z" />
<glyph unicode="&#xd4;" d="M143 393v578q0 88 28.5 161t86 130.5t154.5 89.5t225 32q103 0 186 -21.5t139.5 -58.5t95 -89.5t55.5 -113t17 -130.5v-578q0 -70 -17 -130.5t-55.5 -113t-95 -89.5t-139.5 -58.5t-186 -21.5q-128 0 -225 32t-154.5 89.5t-86 130.5t-28.5 161zM319 397q0 -128 79.5 -195 t238.5 -67t238 67t79 195v570q0 128 -79 195t-238 67t-238.5 -67t-79.5 -195v-570zM381 1552q149 90 256 174q107 -84 256 -174l-53 -96q-85 40 -203 115q-118 -75 -203 -115z" />
<glyph unicode="&#xd5;" d="M143 393v578q0 88 28.5 161t86 130.5t154.5 89.5t225 32q103 0 186 -21.5t139.5 -58.5t95 -89.5t55.5 -113t17 -130.5v-578q0 -70 -17 -130.5t-55.5 -113t-95 -89.5t-139.5 -58.5t-186 -21.5q-128 0 -225 32t-154.5 89.5t-86 130.5t-28.5 161zM319 397q0 -128 79.5 -195 t238.5 -67t238 67t79 195v570q0 128 -79 195t-238 67t-238.5 -67t-79.5 -195v-570zM344 1556q33 53 81 88t101 35q50 0 117 -34q80 -41 113 -41q54 0 92 61l84 -57q-59 -129 -176 -129q-53 0 -123 37q-68 38 -109 38q-21 0 -41.5 -10.5t-32.5 -22.5t-32 -34z" />
<glyph unicode="&#xd6;" d="M143 393v578q0 88 28.5 161t86 130.5t154.5 89.5t225 32q103 0 186 -21.5t139.5 -58.5t95 -89.5t55.5 -113t17 -130.5v-578q0 -70 -17 -130.5t-55.5 -113t-95 -89.5t-139.5 -58.5t-186 -21.5q-128 0 -225 32t-154.5 89.5t-86 130.5t-28.5 161zM319 397q0 -128 79.5 -195 t238.5 -67t238 67t79 195v570q0 128 -79 195t-238 67t-238.5 -67t-79.5 -195v-570zM375 1483v159h164v-159h-164zM737 1483v159h164v-159h-164z" />
<glyph unicode="&#xd7;" horiz-adv-x="1071" d="M143 207l289 289l-289 290l103 101l289 -287l290 287l103 -101l-289 -290l289 -289l-103 -103l-290 289l-289 -289z" />
<glyph unicode="&#xd8;" d="M143 -70l105 181q-105 108 -105 282v578q0 88 28.5 161t86 130.5t154.5 89.5t225 32q187 0 305 -67l98 170l90 -53l-104 -183q104 -107 104 -280v-578q0 -70 -17 -130.5t-55.5 -113t-95 -89.5t-139.5 -58.5t-186 -21.5q-187 0 -305 67l-99 -170zM319 397q0 -63 23 -121 l518 898q-83 55 -223 55q-159 0 -238.5 -67t-79.5 -195v-570zM414 190q76 -55 223 -55q159 0 238 67t79 195v570q0 67 -24 120z" />
<glyph unicode="&#xd9;" horiz-adv-x="1294" d="M164 383v981h176v-971q0 -128 74 -192t233 -64t233 64t74 192v971h176v-981q0 -87 -26.5 -157.5t-81.5 -127t-150.5 -87.5t-224.5 -31t-224.5 31t-150.5 87.5t-81.5 127t-26.5 157.5zM430 1618l78 119q118 -88 256 -168l-70 -113q-144 72 -264 162z" />
<glyph unicode="&#xda;" horiz-adv-x="1294" d="M164 383v981h176v-971q0 -128 74 -192t233 -64t233 64t74 192v971h176v-981q0 -87 -26.5 -157.5t-81.5 -127t-150.5 -87.5t-224.5 -31t-224.5 31t-150.5 87.5t-81.5 127t-26.5 157.5zM543 1569q138 80 256 168l78 -119q-118 -88 -265 -162z" />
<glyph unicode="&#xdb;" horiz-adv-x="1294" d="M164 383v981h176v-971q0 -128 74 -192t233 -64t233 64t74 192v971h176v-981q0 -87 -26.5 -157.5t-81.5 -127t-150.5 -87.5t-224.5 -31t-224.5 31t-150.5 87.5t-81.5 127t-26.5 157.5zM391 1552q149 90 256 174q107 -84 256 -174l-53 -96q-85 40 -203 115 q-118 -75 -203 -115z" />
<glyph unicode="&#xdc;" horiz-adv-x="1294" d="M164 383v981h176v-971q0 -128 74 -192t233 -64t233 64t74 192v971h176v-981q0 -87 -26.5 -157.5t-81.5 -127t-150.5 -87.5t-224.5 -31t-224.5 31t-150.5 87.5t-81.5 127t-26.5 157.5zM385 1483v159h164v-159h-164zM748 1483v159h163v-159h-163z" />
<glyph unicode="&#xdd;" horiz-adv-x="1122" d="M20 1364h185l356 -762l357 762h184l-453 -952v-412h-176v412zM481 1569q138 80 256 168l78 -119q-120 -90 -264 -162z" />
<glyph unicode="&#xde;" horiz-adv-x="1134" d="M174 0v1364h176v-236h318q211 0 303 -85t92 -250v-203q0 -166 -92 -252t-303 -86h-318v-252h-176zM350 410h312q126 0 175.5 40t49.5 140v201q0 101 -49.5 140.5t-175.5 39.5h-312v-561z" />
<glyph unicode="&#xdf;" horiz-adv-x="1216" d="M174 0v1071q0 178 101.5 276.5t289.5 98.5q187 0 283 -88.5t96 -227.5q0 -119 -82 -266q-42 -74 -55.5 -110t-13.5 -72q0 -21 5.5 -36t38 -48t95.5 -78q125 -91 153.5 -135t28.5 -145q0 -67 -12 -111.5t-44.5 -80t-92.5 -52t-152 -16.5q-130 0 -231 34l20 133 q93 -22 197 -22q88 0 117.5 24t29.5 82q0 47 -9 70t-39 50t-112 83q-103 70 -134 121t-31 125q0 51 15 95.5t50 105.5q56 96 71 143t15 106q0 80 -51 125t-156 45q-112 0 -165.5 -52t-53.5 -177v-1071h-172z" />
<glyph unicode="&#xe0;" horiz-adv-x="1009" d="M127 266q0 151 75 216t230 65h266v155q0 94 -48 131t-169 37q-143 0 -299 -32l-18 137q162 43 328 43q207 0 292.5 -79t85.5 -245v-694h-145l-10 74q-136 -94 -324 -94q-264 0 -264 286zM293 1296l74 115q100 -82 280 -186l-69 -107q-159 84 -285 178zM299 270 q0 -82 26.5 -112.5t114.5 -30.5q131 0 258 82v194h-254q-80 0 -112.5 -29.5t-32.5 -103.5z" />
<glyph unicode="&#xe1;" horiz-adv-x="1009" d="M127 266q0 151 75 216t230 65h266v155q0 94 -48 131t-169 37q-143 0 -299 -32l-18 137q162 43 328 43q207 0 292.5 -79t85.5 -245v-694h-145l-10 74q-136 -94 -324 -94q-264 0 -264 286zM299 270q0 -82 26.5 -112.5t114.5 -30.5q131 0 258 82v194h-254 q-80 0 -112.5 -29.5t-32.5 -103.5zM371 1225q180 104 280 186l74 -115q-126 -94 -285 -178z" />
<glyph unicode="&#xe2;" horiz-adv-x="1009" d="M127 266q0 151 75 216t230 65h266v155q0 94 -48 131t-169 37q-143 0 -299 -32l-18 137q162 43 328 43q207 0 292.5 -79t85.5 -245v-694h-145l-10 74q-136 -94 -324 -94q-264 0 -264 286zM236 1200q133 79 272 193q139 -114 272 -193l-61 -96q-126 69 -211 137 q-85 -68 -211 -137zM299 270q0 -82 26.5 -112.5t114.5 -30.5q131 0 258 82v194h-254q-80 0 -112.5 -29.5t-32.5 -103.5z" />
<glyph unicode="&#xe3;" horiz-adv-x="1009" d="M127 266q0 151 75 216t230 65h266v155q0 94 -48 131t-169 37q-143 0 -299 -32l-18 137q162 43 328 43q207 0 292.5 -79t85.5 -245v-694h-145l-10 74q-136 -94 -324 -94q-264 0 -264 286zM233 1204q33 53 81.5 88t101.5 35q48 0 116 -35q80 -41 113 -41q53 0 92 62l84 -58 q-59 -129 -176 -129q-53 0 -123 37q-26 15 -38.5 21t-32 12t-37.5 6q-30 0 -54 -17t-53 -50zM299 270q0 -82 26.5 -112.5t114.5 -30.5q131 0 258 82v194h-254q-80 0 -112.5 -29.5t-32.5 -103.5z" />
<glyph unicode="&#xe4;" horiz-adv-x="1009" d="M127 266q0 151 75 216t230 65h266v155q0 94 -48 131t-169 37q-143 0 -299 -32l-18 137q162 43 328 43q207 0 292.5 -79t85.5 -245v-694h-145l-10 74q-136 -94 -324 -94q-264 0 -264 286zM266 1149v170h160v-170h-160zM299 270q0 -82 26.5 -112.5t114.5 -30.5 q131 0 258 82v194h-254q-80 0 -112.5 -29.5t-32.5 -103.5zM621 1149v170h159v-170h-159z" />
<glyph unicode="&#xe5;" horiz-adv-x="1009" d="M127 266q0 151 75 216t230 65h266v155q0 94 -48 131t-169 37q-143 0 -299 -32l-18 137q162 43 328 43q207 0 292.5 -79t85.5 -245v-694h-145l-10 74q-136 -94 -324 -94q-264 0 -264 286zM299 270q0 -82 26.5 -112.5t114.5 -30.5q131 0 258 82v194h-254 q-80 0 -112.5 -29.5t-32.5 -103.5zM356 1251q0 65 40 107.5t112 42.5t111.5 -42.5t39.5 -107.5t-39.5 -107t-111.5 -42t-112 42.5t-40 106.5zM440 1251q0 -33 18 -53t50 -20t49.5 20t17.5 53t-17.5 53.5t-49.5 20.5t-50 -20.5t-18 -53.5z" />
<glyph unicode="&#xe6;" horiz-adv-x="1570" d="M127 266q0 151 75 216t230 65h266v155q0 94 -48 131t-169 37q-143 0 -299 -32l-18 137q162 43 328 43q111 0 180 -23.5t123 -76.5q106 100 295 100q107 0 182.5 -29t116 -83t58 -118t17.5 -147v-209h-594v-106q3 -110 53 -154.5t185 -44.5q138 0 315 47l23 -137 q-153 -57 -352 -57q-234 0 -324 116q-158 -116 -369 -116q-152 0 -213 72.5t-61 213.5zM299 270q0 -82 26.5 -112.5t114.5 -30.5q134 0 275 78q-17 70 -17 141v57h-254q-80 0 -112.5 -29.5t-32.5 -103.5zM870 575h428v82q0 110 -46 163.5t-162 53.5q-118 0 -169 -54.5 t-51 -162.5v-82z" />
<glyph unicode="&#xe7;" horiz-adv-x="837" d="M102 342v313q0 90 19 154t63 112.5t122.5 72.5t193.5 24q138 0 237 -31l-14 -143q-107 22 -219 22q-130 0 -180 -44t-50 -160v-326q0 -116 50 -160.5t180 -44.5q107 0 219 23l16 -144q-96 -30 -239 -30l-23 -109q27 6 55 6q70 0 110 -34t40 -101q0 -72 -52 -116t-153 -44 q-83 0 -164 31l21 84q74 -21 127 -21q110 0 110 64q0 32 -20.5 45.5t-65.5 13.5q-28 0 -61 -10l-59 27l36 170q-170 18 -234.5 104.5t-64.5 251.5z" />
<glyph unicode="&#xe8;" horiz-adv-x="985" d="M113 346v299q0 81 20 146t63.5 117.5t121.5 81t186 28.5q107 0 182.5 -29t116.5 -82.5t58.5 -118t17.5 -147.5v-209h-594v-84q0 -124 48 -172.5t189 -48.5q139 0 316 47l22 -137q-153 -57 -352 -57q-212 0 -303.5 94t-91.5 272zM279 1296l73 115q97 -80 281 -186 l-70 -107q-155 82 -284 178zM285 575h428v82q0 110 -46.5 163.5t-162.5 53.5q-118 0 -168.5 -54t-50.5 -163v-82z" />
<glyph unicode="&#xe9;" horiz-adv-x="985" d="M113 346v299q0 81 20 146t63.5 117.5t121.5 81t186 28.5q107 0 182.5 -29t116.5 -82.5t58.5 -118t17.5 -147.5v-209h-594v-84q0 -124 48 -172.5t189 -48.5q139 0 316 47l22 -137q-153 -57 -352 -57q-212 0 -303.5 94t-91.5 272zM285 575h428v82q0 110 -46.5 163.5 t-162.5 53.5q-118 0 -168.5 -54t-50.5 -163v-82zM375 1225q180 104 280 186l74 -115q-126 -94 -285 -178z" />
<glyph unicode="&#xea;" horiz-adv-x="985" d="M113 346v299q0 81 20 146t63.5 117.5t121.5 81t186 28.5q107 0 182.5 -29t116.5 -82.5t58.5 -118t17.5 -147.5v-209h-594v-84q0 -124 48 -172.5t189 -48.5q139 0 316 47l22 -137q-153 -57 -352 -57q-212 0 -303.5 94t-91.5 272zM246 1200q133 79 272 193 q137 -112 273 -193l-62 -96q-126 69 -211 137q-85 -68 -211 -137zM285 575h428v82q0 110 -46.5 163.5t-162.5 53.5q-118 0 -168.5 -54t-50.5 -163v-82z" />
<glyph unicode="&#xeb;" horiz-adv-x="985" d="M113 346v299q0 81 20 146t63.5 117.5t121.5 81t186 28.5q107 0 182.5 -29t116.5 -82.5t58.5 -118t17.5 -147.5v-209h-594v-84q0 -124 48 -172.5t189 -48.5q139 0 316 47l22 -137q-153 -57 -352 -57q-212 0 -303.5 94t-91.5 272zM258 1149v170h160v-170h-160zM285 575h428 v82q0 110 -46.5 163.5t-162.5 53.5q-118 0 -168.5 -54t-50.5 -163v-82zM612 1149v170h160v-170h-160z" />
<glyph unicode="&#xec;" horiz-adv-x="499" d="M4 1296l74 115q100 -82 280 -186l-69 -107q-159 84 -285 178zM164 0v997h172v-997h-172z" />
<glyph unicode="&#xed;" horiz-adv-x="499" d="M164 0v997h172v-997h-172zM166 1225q180 104 280 186l74 -115q-129 -96 -284 -178z" />
<glyph unicode="&#xee;" horiz-adv-x="499" d="M-23 1200q136 81 273 193q139 -114 272 -193l-61 -96q-126 69 -211 137q-85 -68 -211 -137zM164 0v997h172v-997h-172z" />
<glyph unicode="&#xef;" horiz-adv-x="499" d="M-6 1149v170h160v-170h-160zM164 0v997h172v-997h-172zM348 1149v170h160v-170h-160z" />
<glyph unicode="&#xf0;" horiz-adv-x="1060" d="M133 336v229q0 98 17 166.5t58 118t112 73t176 23.5q65 0 135.5 -17.5t124.5 -49.5q-14 170 -162 280l-176 -127l-60 78l148 107q-67 36 -211 86l43 133q165 -49 295 -127l135 96l59 -78l-108 -78q209 -174 209 -493v-420q0 -165 -95.5 -260.5t-302.5 -95.5 q-110 0 -189 26t-123.5 75.5t-64.5 112t-20 142.5zM305 362q0 -60 7 -97t29 -71t68.5 -49.5t120.5 -15.5t120.5 15.5t69 49.5t29.5 71t7 97v357q-115 80 -246 80q-108 0 -156.5 -50.5t-48.5 -158.5v-228z" />
<glyph unicode="&#xf1;" horiz-adv-x="1091" d="M164 0v997h139l16 -86q91 43 204.5 75t197.5 32q217 0 217 -254v-764h-172v762q0 48 -24 70t-72 22q-56 0 -155.5 -29.5t-178.5 -70.5v-754h-172zM262 1204q33 53 81 88t101 35q49 0 117 -35q80 -41 113 -41q53 0 92 62l84 -58q-59 -129 -176 -129q-53 0 -123 37l-39 21 t-32.5 12.5t-37.5 5.5q-21 0 -41.5 -10.5t-32.5 -22.5t-32 -34z" />
<glyph unicode="&#xf2;" horiz-adv-x="1036" d="M113 354v289q0 81 23 147.5t70 118t126.5 80.5t185.5 29q207 0 306.5 -103.5t99.5 -271.5v-289q0 -168 -99.5 -271t-306.5 -103t-306 103t-99 271zM260 1296l74 115q100 -82 280 -186l-69 -107q-159 84 -285 178zM285 348q0 -219 233 -219q234 0 234 219v301 q0 219 -234 219q-233 0 -233 -219v-301z" />
<glyph unicode="&#xf3;" horiz-adv-x="1036" d="M113 354v289q0 81 23 147.5t70 118t126.5 80.5t185.5 29q207 0 306.5 -103.5t99.5 -271.5v-289q0 -168 -99.5 -271t-306.5 -103t-306 103t-99 271zM285 348q0 -219 233 -219q234 0 234 219v301q0 219 -234 219q-233 0 -233 -219v-301zM389 1225q184 106 281 186l73 -115 q-129 -96 -284 -178z" />
<glyph unicode="&#xf4;" horiz-adv-x="1036" d="M113 354v289q0 81 23 147.5t70 118t126.5 80.5t185.5 29q207 0 306.5 -103.5t99.5 -271.5v-289q0 -168 -99.5 -271t-306.5 -103t-306 103t-99 271zM246 1200q133 79 272 193q137 -112 273 -193l-62 -96q-126 69 -211 137q-85 -68 -211 -137zM285 348q0 -219 233 -219 q234 0 234 219v301q0 219 -234 219q-233 0 -233 -219v-301z" />
<glyph unicode="&#xf5;" horiz-adv-x="1036" d="M113 354v289q0 81 23 147.5t70 118t126.5 80.5t185.5 29q207 0 306.5 -103.5t99.5 -271.5v-289q0 -168 -99.5 -271t-306.5 -103t-306 103t-99 271zM236 1204q33 53 81 88t101 35q49 0 117 -35q80 -41 112 -41q53 0 92 62l84 -58q-59 -129 -176 -129q-53 0 -123 37 q-26 15 -38.5 21t-32 12t-37.5 6q-30 0 -54 -17t-53 -50zM285 348q0 -219 233 -219q234 0 234 219v301q0 219 -234 219q-233 0 -233 -219v-301z" />
<glyph unicode="&#xf6;" horiz-adv-x="1036" d="M113 354v289q0 81 23 147.5t70 118t126.5 80.5t185.5 29q207 0 306.5 -103.5t99.5 -271.5v-289q0 -168 -99.5 -271t-306.5 -103t-306 103t-99 271zM262 1149v170h160v-170h-160zM285 348q0 -219 233 -219q234 0 234 219v301q0 219 -234 219q-233 0 -233 -219v-301z M616 1149v170h160v-170h-160z" />
<glyph unicode="&#xf7;" horiz-adv-x="1101" d="M133 428v139h836v-139h-836zM465 63v193h172v-193h-172zM465 739v193h172v-193h-172z" />
<glyph unicode="&#xf8;" horiz-adv-x="1036" d="M113 -55l92 145q-92 95 -92 264v289q0 81 23 147.5t70 118t126.5 80.5t185.5 29q146 0 242 -55l88 137l76 -47l-93 -146q93 -100 93 -264v-289q0 -168 -99.5 -271t-306.5 -103q-148 0 -244 55l-86 -137zM285 348q0 -65 16 -104l373 583q-56 41 -156 41q-233 0 -233 -219 v-301zM360 168q56 -39 158 -39q234 0 234 219v301q0 56 -19 105z" />
<glyph unicode="&#xf9;" horiz-adv-x="1091" d="M154 233v764h172v-761q0 -93 96 -93q56 0 155.5 30t178.5 71v753h172v-997h-140l-16 86q-90 -43 -203.5 -74.5t-197.5 -31.5q-217 0 -217 253zM317 1296l74 115q97 -80 281 -186l-70 -107q-159 84 -285 178z" />
<glyph unicode="&#xfa;" horiz-adv-x="1091" d="M154 233v764h172v-761q0 -93 96 -93q56 0 155.5 30t178.5 71v753h172v-997h-140l-16 86q-90 -43 -203.5 -74.5t-197.5 -31.5q-217 0 -217 253zM412 1225q180 104 280 186l74 -115q-126 -94 -285 -178z" />
<glyph unicode="&#xfb;" horiz-adv-x="1091" d="M154 233v764h172v-761q0 -93 96 -93q56 0 155.5 30t178.5 71v753h172v-997h-140l-16 86q-90 -43 -203.5 -74.5t-197.5 -31.5q-217 0 -217 253zM272 1200q136 81 273 193q139 -114 272 -193l-61 -96q-126 69 -211 137q-85 -68 -211 -137z" />
<glyph unicode="&#xfc;" horiz-adv-x="1091" d="M154 233v764h172v-761q0 -93 96 -93q56 0 155.5 30t178.5 71v753h172v-997h-140l-16 86q-90 -43 -203.5 -74.5t-197.5 -31.5q-217 0 -217 253zM293 1149v170h160v-170h-160zM647 1149v170h160v-170h-160z" />
<glyph unicode="&#xfd;" horiz-adv-x="917" d="M16 997h170l273 -860l276 860h170l-330 -997l-141 -403h-162l140 403h-72zM332 1225q180 104 280 186l74 -115q-126 -94 -285 -178z" />
<glyph unicode="&#xfe;" horiz-adv-x="1071" d="M164 -428v1833l172 25v-515q135 103 317 103q291 0 291 -305v-408q0 -325 -323 -325q-135 0 -285 30v-413zM336 162q158 -31 274 -31q86 0 124 41.5t38 132.5v408q0 80 -33.5 116.5t-120.5 36.5q-71 0 -147.5 -33t-134.5 -85v-586z" />
<glyph unicode="&#xff;" horiz-adv-x="917" d="M16 997h170l273 -860l276 860h170l-330 -997l-141 -403h-162l140 403h-72zM211 1149v170h160v-170h-160zM565 1149v170h160v-170h-160z" />
<glyph unicode="&#x152;" horiz-adv-x="1863" d="M143 414v536q0 88 28.5 161t86 130.5t154.5 90t225 32.5h1092v-158h-627v-428h581v-157h-581v-463h629v-158h-1094q-128 0 -225 32.5t-154.5 90t-86 130.5t-28.5 161zM319 418q0 -128 79.5 -195t238.5 -67h289v1052h-289q-159 0 -238.5 -67t-79.5 -195v-528z" />
<glyph unicode="&#x153;" horiz-adv-x="1624" d="M113 354v289q0 81 23 147.5t70 118t126.5 80.5t185.5 29q209 0 316 -113q95 113 309 113q107 0 182.5 -29t116.5 -82.5t58.5 -118t17.5 -147.5v-209h-594v-94q0 -116 49.5 -163.5t187.5 -47.5q139 0 316 47l22 -137q-153 -57 -352 -57q-224 0 -318 108 q-105 -108 -311 -108q-207 0 -306 103t-99 271zM285 348q0 -219 233 -219q115 0 174.5 52.5t59.5 154.5v313q0 219 -234 219q-233 0 -233 -219v-301zM924 575h428v82q0 110 -46.5 163.5t-162.5 53.5q-118 0 -168.5 -54t-50.5 -163v-82z" />
<glyph unicode="&#x178;" horiz-adv-x="1122" d="M20 1364h185l356 -762l357 762h184l-453 -952v-412h-176v412zM299 1483v159h164v-159h-164zM662 1483v159h163v-159h-163z" />
<glyph unicode="&#x2c6;" horiz-adv-x="811" d="M133 1200q136 81 273 193q139 -114 272 -193l-62 -96q-123 67 -210 137q-85 -68 -211 -137z" />
<glyph unicode="&#x2dc;" horiz-adv-x="854" d="M133 1204q33 53 81 88t101 35q49 0 117 -35q80 -41 113 -41q53 0 92 62l84 -58q-59 -129 -176 -129q-53 0 -123 37l-39 21t-32.5 12.5t-37.5 5.5q-21 0 -41.5 -10.5t-32.5 -22.5t-32 -34z" />
<glyph unicode="&#x2000;" horiz-adv-x="868" />
<glyph unicode="&#x2001;" horiz-adv-x="1737" />
<glyph unicode="&#x2002;" horiz-adv-x="868" />
<glyph unicode="&#x2003;" horiz-adv-x="1737" />
<glyph unicode="&#x2004;" horiz-adv-x="579" />
<glyph unicode="&#x2005;" horiz-adv-x="434" />
<glyph unicode="&#x2006;" horiz-adv-x="289" />
<glyph unicode="&#x2007;" horiz-adv-x="289" />
<glyph unicode="&#x2008;" horiz-adv-x="217" />
<glyph unicode="&#x2009;" horiz-adv-x="347" />
<glyph unicode="&#x200a;" horiz-adv-x="96" />
<glyph unicode="&#x2010;" horiz-adv-x="757" d="M123 500v141h512v-141h-512z" />
<glyph unicode="&#x2011;" horiz-adv-x="757" d="M123 500v141h512v-141h-512z" />
<glyph unicode="&#x2012;" horiz-adv-x="757" d="M123 500v141h512v-141h-512z" />
<glyph unicode="&#x2013;" horiz-adv-x="995" d="M123 500v141h749v-141h-749z" />
<glyph unicode="&#x2014;" horiz-adv-x="1253" d="M123 500v141h1007v-141h-1007z" />
<glyph unicode="&#x2018;" horiz-adv-x="520" d="M174 952v236l123 246l80 -39l-86 -207h59v-236h-176z" />
<glyph unicode="&#x2019;" horiz-adv-x="489" d="M154 963l86 206h-60v236h176v-236l-123 -245z" />
<glyph unicode="&#x201a;" horiz-adv-x="520" d="M143 -207l86 207h-59v236h176v-236l-123 -246z" />
<glyph unicode="&#x201c;" horiz-adv-x="886" d="M174 952v236l123 246l80 -39l-86 -207h59v-236h-176zM541 952v236l123 246l79 -39l-86 -207h60v-236h-176z" />
<glyph unicode="&#x201d;" horiz-adv-x="886" d="M143 963l86 206h-59v236h176v-236l-123 -245zM510 963l86 206h-59v236h176v-236l-123 -245z" />
<glyph unicode="&#x201e;" horiz-adv-x="886" d="M143 -207l86 207h-59v236h176v-236l-123 -246zM510 -207l86 207h-59v236h176v-236l-123 -246z" />
<glyph unicode="&#x2022;" horiz-adv-x="763" d="M133 662q0 103 72.5 175t175.5 72t176.5 -72.5t73.5 -174.5q0 -103 -73.5 -175.5t-176.5 -72.5t-175.5 72.5t-72.5 175.5z" />
<glyph unicode="&#x2026;" horiz-adv-x="1572" d="M174 0v236h176v-236h-176zM698 0v236h176v-236h-176zM1223 0v236h176v-236h-176z" />
<glyph unicode="&#x202f;" horiz-adv-x="347" />
<glyph unicode="&#x2039;" horiz-adv-x="593" d="M82 500l260 395l119 -78l-209 -317l209 -318l-119 -78z" />
<glyph unicode="&#x203a;" horiz-adv-x="593" d="M133 182l209 318l-209 317l119 78l260 -395l-260 -396z" />
<glyph unicode="&#x205f;" horiz-adv-x="434" />
<glyph unicode="&#x20ac;" horiz-adv-x="1112" d="M72 455v112h178v224h-178v112h178v39q0 199 111.5 300t355.5 101q158 0 303 -34l-19 -148q-159 27 -278 27q-168 0 -234.5 -55t-66.5 -197v-33h448v-112h-448v-224h448v-112h-448v-68q0 -142 66.5 -197t234.5 -55q134 0 278 25l19 -148q-136 -32 -303 -32 q-244 0 -355.5 101t-111.5 300v74h-178z" />
<glyph unicode="&#x2122;" horiz-adv-x="1046" d="M102 1294v70h322v-70h-123v-350h-76v350h-123zM504 944l12 420h90l113 -301l112 301h91l12 -420h-76l-6 281l-86 -230h-94l-86 230l-6 -281h-76z" />
<glyph unicode="&#xe000;" horiz-adv-x="993" d="M0 0v993h993v-993h-993z" />
<glyph unicode="&#xfb03;" horiz-adv-x="1925" d="M61 856v141h177v185q0 131 71.5 197.5t210.5 66.5q120 0 225 -31l-14 -133q-111 21 -188 21q-78 0 -105.5 -30.5t-27.5 -107.5v-168h530v185q0 131 72 197.5t211 66.5q91 0 186 -27l-14 -133q-90 17 -150 17q-78 0 -105.5 -30.5t-27.5 -107.5v-168h649v-997h-172v856 h-477v-856h-172v856h-530v-856h-172v856h-177zM1589 1157v248h172v-248h-172z" />
<glyph unicode="&#xfb04;" horiz-adv-x="1925" d="M61 856v141h177v185q0 131 71.5 197.5t210.5 66.5q120 0 225 -31l-14 -133q-111 21 -188 21q-78 0 -105.5 -30.5t-27.5 -107.5v-168h530v185q0 131 72 197.5t211 66.5q90 0 192 -27l-14 -133q-87 17 -156 17q-78 0 -105.5 -30.5t-27.5 -107.5v-168h274l-14 -141h-260 v-856h-172v856h-530v-856h-172v856h-177zM1589 0v1405l172 25v-1430h-172z" />
</font>
</defs>
</svg>
